<svg width="31" height="27" viewBox="0 0 31 27" fill="none" xmlns="http://www.w3.org/2000/svg">
<path d="M2.97298 25.2189C2.36403 25.1466 1.80424 24.8778 1.39602 24.4621C0.987817 24.0463 0.758486 23.5113 0.75 22.9549V2.79339C0.75 2.25146 0.987605 1.7317 1.41055 1.3485C1.83348 0.965285 2.40712 0.75 3.00524 0.75H9.77098C10.3691 0.75 10.9427 0.965285 11.3657 1.3485C11.7886 1.7317 12.0262 2.25146 12.0262 2.79339V4.83678H27.8129C28.411 4.83678 28.9848 5.05208 29.4077 5.43528C29.8306 5.81848 30.0682 6.33824 30.0682 6.88018V24.7717C29.6738 25.0462 29.5129 25.2708 29.0157 25.2707H3.30143" stroke="white" stroke-width="1.5" stroke-linecap="round" stroke-linejoin="round"/>
<rect x="2.92188" y="4.17773" width="27.1465" height="21" rx="2" fill="white"/>
<rect x="1.83984" y="24.1777" width="10.8586" height="1" fill="#DEDDDD"/>
</svg>
