<svg width="29" height="27" viewBox="0 0 29 27" fill="none" xmlns="http://www.w3.org/2000/svg">
<path d="M2.79721 25.6972C2.23641 25.6235 1.72088 25.3494 1.34494 24.9256C0.969013 24.5017 0.757815 23.9562 0.75 23.3889V2.83333C0.75 2.28081 0.968818 1.75089 1.35832 1.36019C1.74781 0.969493 2.2761 0.75 2.82692 0.75H9.05769C9.60852 0.75 10.1368 0.969493 10.5263 1.36019C10.9158 1.75089 11.1346 2.28081 11.1346 2.83333V4.91667H25.6731C26.2239 4.91667 26.7522 5.13617 27.1417 5.52686C27.5312 5.91756 27.75 6.44747 27.75 7V25.2412C27.3868 25.5211 27.2387 25.7501 26.7808 25.75H3.09969" stroke="white" stroke-width="1.5" stroke-linecap="round" stroke-linejoin="round"/>
</svg>
