<svg preserveAspectRatio="none" width="100%" height="100%" overflow="visible" style="display: block;" viewBox="0 0 30 29" fill="none" xmlns="http://www.w3.org/2000/svg">
<g id="GTBank_logo 1" clip-path="url(#clip0_0_4)">
<path id="Vector" d="M0 29H30V0H0V29Z" fill="var(--fill-0, #DE4A09)"/>
<path id="Vector_2" d="M6.53317 21.015C6.38298 21.0513 5.55695 21.2691 4.84355 21.2691C3.94243 21.2691 3.00375 21.015 3.00375 18.9099C3.00375 16.841 4.2428 16.4781 5.18148 16.4781C5.85732 16.4781 6.38298 16.7322 6.38298 16.7322V17.3492C6.38298 17.3492 5.78223 17.1314 5.18148 17.1314C4.58073 17.1314 3.86733 17.3855 3.86733 18.8736C3.86733 20.398 4.43054 20.6158 4.91865 20.6158C5.25657 20.6158 5.70713 20.5069 5.70713 20.5069V18.9462H4.9562L4.8811 18.3655H6.53317V21.015ZM7.05882 16.4781H10.5882L10.4756 17.204H9.31164V21.2328H8.37297V17.2403H7.02128V16.4781H7.05882ZM11.3392 16.5144L12.9912 16.4781C15.0563 16.4781 15.0188 18.6195 13.8173 18.7284C15.1314 18.9099 15.0563 20.7972 13.8173 21.2328H11.3767V16.5144H11.3392ZM12.2403 17.2403V18.4743H13.1039C13.592 18.438 13.8548 17.3855 13.1414 17.2403H12.2403ZM12.2403 19.1277V20.5069H13.1039C14.0801 20.5069 13.8548 19.164 13.1414 19.1277H12.2403ZM15.6571 17.821C16.8961 17.2766 18.3229 17.3855 18.5482 18.2929V21.2328H17.6846V20.761C16.9337 21.5594 15.1314 21.4143 15.3567 19.781C15.5069 19.0188 16.3329 18.801 17.6095 18.9099C17.7222 17.8573 16.3329 18.3655 15.6571 18.5469V17.821ZM16.3705 19.6721C15.8073 20.5795 16.9337 20.8698 17.6095 20.1802V19.5632C17.1965 19.418 16.5582 19.418 16.3705 19.6721ZM20.3504 18.6921V21.2691H19.3742V17.5307H20.2753V17.9662C21.627 17.204 22.7159 17.4218 22.9036 18.5106V21.2328H21.9274V18.6558C21.7397 18.0025 20.5757 18.438 20.3504 18.6921ZM23.617 21.2691V16.4781H24.5557V21.2328H23.617V21.2691ZM25.8698 17.5307H26.9962L25.6821 19.2002L27.1089 21.2691H26.0576L24.6683 19.164L25.8698 17.5307ZM17.1214 11.3967H24.6308V4.17397H17.1214V11.3967Z" fill="var(--fill-0, #FEFEFE)"/>
</g>
<defs>
<clipPath id="clip0_0_4">
<rect width="30" height="29" fill="white"/>
</clipPath>
</defs>
</svg>
