<svg preserveAspectRatio="none" width="100%" height="100%" overflow="visible" style="display: block;" viewBox="0 0 28.5001 26.5" fill="none" xmlns="http://www.w3.org/2000/svg">
<path id="Vector" d="M2.79728 25.6972C2.23648 25.6235 1.72095 25.3494 1.34501 24.9256C0.969084 24.5017 0.757886 23.9562 0.750071 23.3889V2.83333C0.750071 2.28081 0.968889 1.75089 1.35839 1.36019C1.74788 0.969493 2.27617 0.75 2.82699 0.75H9.05776C9.60859 0.75 10.1369 0.969493 10.5264 1.36019C10.9159 1.75089 11.1347 2.28081 11.1347 2.83333V4.91667H25.6731C26.2239 4.91667 26.7523 5.13617 27.1418 5.52686C27.5313 5.91756 27.7501 6.44747 27.7501 7V25.2412C27.3869 25.5211 27.2387 25.7501 26.7808 25.75H3.09976" stroke="var(--stroke-0, white)" stroke-width="1.5" stroke-linecap="round" stroke-linejoin="round"/>
</svg>
