<svg preserveAspectRatio="none" width="100%" height="100%" overflow="visible" style="display: block;" viewBox="0 0 20 20" fill="none" xmlns="http://www.w3.org/2000/svg">
<g id="ic:round-add">
<path id="Vector" d="M12.5714 10.4286H10.4286V12.5714C10.4286 12.8071 10.2357 13 10 13C9.76429 13 9.57143 12.8071 9.57143 12.5714V10.4286H7.42857C7.19286 10.4286 7 10.2357 7 10C7 9.76429 7.19286 9.57143 7.42857 9.57143H9.57143V7.42857C9.57143 7.19286 9.76429 7 10 7C10.2357 7 10.4286 7.19286 10.4286 7.42857V9.57143H12.5714C12.8071 9.57143 13 9.76429 13 10C13 10.2357 12.8071 10.4286 12.5714 10.4286Z" fill="var(--fill-0, white)"/>
</g>
</svg>
