<svg preserveAspectRatio="none" width="100%" height="100%" overflow="visible" style="display: block;" viewBox="0 0 6 6" fill="none" xmlns="http://www.w3.org/2000/svg">
<path id="Vector" d="M5.57143 3.42857C4.38796 3.42857 3.42857 4.38796 3.42857 5.57143C3.42857 5.80714 3.23571 6 3 6C2.76429 6 2.57143 5.80714 2.57143 5.57143C2.57143 4.38796 1.61204 3.42857 0.428571 3.42857C0.192857 3.42857 0 3.23571 0 3C0 2.76429 0.192857 2.57143 0.428571 2.57143C1.61204 2.57143 2.57143 1.61204 2.57143 0.428571C2.57143 0.192857 2.76429 0 3 0C3.23571 0 3.42857 0.192857 3.42857 0.428571C3.42857 1.61204 4.38796 2.57143 5.57143 2.57143C5.80714 2.57143 6 2.76429 6 3C6 3.23571 5.80714 3.42857 5.57143 3.42857Z" fill="var(--fill-0, white)"/>
</svg>
